<svg id="Layer_1" data-name="Layer 1" xmlns="http://www.w3.org/2000/svg" viewBox="0 0 415.13 415.13"><defs><style>.cls-1{fill:#262262;}.cls-2,.cls-3{fill:#fff;}.cls-3{stroke:#231f20;stroke-miterlimit:10;}</style></defs><rect class="cls-1" width="415.13" height="415.13" rx="95.81"/><circle class="cls-2" cx="152.8" cy="140.62" r="66.36"/><circle class="cls-1" cx="205.46" cy="210.95" r="94.39"/><circle class="cls-2" cx="220.32" cy="227.33" r="108.36"/><circle class="cls-3" cx="235.75" cy="252.08" r="88.78"/><polygon class="cls-2" points="268.18 34.62 266.95 32.12 264.19 31.72 266.18 29.77 265.71 27.02 268.18 28.32 270.65 27.02 270.18 29.77 272.18 31.72 269.42 32.12 268.18 34.62"/><polygon class="cls-2" points="324.52 108.57 321.81 103.07 315.73 102.18 320.13 97.9 319.09 91.85 324.52 94.71 329.96 91.85 328.92 97.9 333.32 102.18 327.24 103.07 324.52 108.57"/><polygon class="cls-2" points="247.17 87.56 242.45 84.29 237.08 86.33 238.73 80.83 235.13 76.35 240.87 76.22 244.02 71.41 245.92 76.83 251.46 78.34 246.89 81.82 247.17 87.56"/><polygon class="cls-2" points="368.18 237.14 366.8 230.56 360.59 227.97 366.43 224.62 366.98 217.91 371.96 222.43 378.51 220.88 375.76 227.01 379.25 232.76 372.57 232.04 368.18 237.14"/><polygon class="cls-2" points="360.59 325.38 361.64 332.5 368.1 335.68 361.65 338.87 360.62 346 355.59 340.85 348.5 342.08 351.84 335.7 348.48 329.33 355.57 330.54 360.59 325.38"/><polygon class="cls-2" points="315.73 355.63 319.92 357.3 323.67 354.79 323.38 359.29 326.93 362.08 322.56 363.19 321 367.43 318.59 363.62 314.08 363.44 316.96 359.97 315.73 355.63"/><polygon class="cls-2" points="146.97 340.86 151.06 349.15 160.22 350.48 153.59 356.94 155.16 366.06 146.97 361.75 138.78 366.06 140.35 356.94 133.72 350.48 142.88 349.15 146.97 340.86"/><polygon class="cls-2" points="81.63 311.93 77.36 317.15 79.24 323.63 72.95 321.18 67.38 324.97 67.76 318.24 62.44 314.1 68.96 312.39 71.24 306.05 74.89 311.72 81.63 311.93"/><polygon class="cls-2" points="57.26 206.98 54.26 203.42 49.62 203.87 52.08 199.91 50.21 195.65 54.74 196.76 58.22 193.67 58.56 198.32 62.57 200.67 58.26 202.43 57.26 206.98"/><polygon class="cls-2" points="56.1 130.42 54.93 128.05 52.32 127.67 54.21 125.83 53.76 123.23 56.1 124.46 58.43 123.23 57.98 125.83 59.87 127.67 57.26 128.05 56.1 130.42"/><polygon class="cls-2" points="86.44 67.43 85.33 65.17 82.83 64.81 84.63 63.05 84.21 60.56 86.44 61.73 88.67 60.56 88.25 63.05 90.06 64.81 87.56 65.17 86.44 67.43"/><polygon class="cls-2" points="67.34 252.08 65.17 247.69 60.33 246.99 63.83 243.57 63.01 238.74 67.34 241.02 71.68 238.74 70.85 243.57 74.36 246.99 69.51 247.69 67.34 252.08"/><polygon class="cls-2" points="34.57 285.04 33.08 283.29 30.79 283.52 32 281.56 31.07 279.45 33.31 280 35.02 278.47 35.2 280.76 37.18 281.92 35.06 282.79 34.57 285.04"/><polygon class="cls-2" points="342.97 140.62 341.47 141.36 341.23 143.02 340.06 141.82 338.41 142.1 339.19 140.62 338.41 139.14 340.06 139.42 341.23 138.22 341.47 139.88 342.97 140.62"/><polygon class="cls-2" points="152.8 34.62 147.09 31.81 141.54 34.91 142.46 28.62 137.79 24.3 144.06 23.22 146.72 17.45 149.68 23.07 156 23.83 151.56 28.38 152.8 34.62"/><polygon class="cls-2" points="49.62 53.95 45.18 52.41 41.39 55.19 41.49 50.49 37.67 47.75 42.17 46.39 43.6 41.91 46.28 45.77 50.98 45.74 48.14 49.49 49.62 53.95"/><polygon class="cls-2" points="342.97 48.55 341.02 44.59 336.66 43.96 339.81 40.88 339.07 36.54 342.97 38.59 346.87 36.54 346.13 40.88 349.29 43.96 344.92 44.59 342.97 48.55"/><polygon class="cls-2" points="219.16 384.2 215.83 384.6 214.27 387.56 212.87 384.52 209.56 383.96 212.02 381.68 211.54 378.37 214.47 380 217.47 378.52 216.82 381.8 219.16 384.2"/></svg>